<svg xmlns="http://www.w3.org/2000/svg" viewBox="0 0 512 512">
  <defs>
    <linearGradient id="background" x1="64" y1="48" x2="448" y2="464" gradientUnits="userSpaceOnUse">
      <stop stop-color="#ff70a6"/>
      <stop offset="1" stop-color="#f9c74f"/>
    </linearGradient>
  </defs>
  <rect width="512" height="512" rx="112" fill="url(#background)"/>
  <path d="M121 321c-19-66 14-143 79-178 59-32 137-20 179 31 35 43 36 108 4 149-29 37-77 53-125 42-27-6-44 8-66 18-27 13-59-10-53-40 2-10-14-14-18-22Z" fill="#fffaf2"/>
  <circle cx="190" cy="212" r="25" fill="#f94144"/>
  <circle cx="259" cy="177" r="25" fill="#3cff00"/>
  <circle cx="329" cy="213" r="25" fill="#0030b6"/>
  <circle cx="337" cy="285" r="25" fill="#8942e0"/>
  <path d="M203 327c22-43 68-64 113-50" fill="none" stroke="#15202b" stroke-width="20" stroke-linecap="round"/>
  <path d="m100 389 54-72 42 31-54 72-48 13Z" fill="#70d6ff" stroke="#15202b" stroke-width="14" stroke-linejoin="round"/>
  <path d="m94 433 48-13-35-26Z" fill="#15202b"/>
</svg>
