<svg viewBox="0 0 300 300" xmlns="http://www.w3.org/2000/svg">
  <g fill="none" stroke="#111" stroke-width="10" stroke-linecap="round" stroke-linejoin="round">
    <path d="M72 114 L58 46 L120 86" />
    <path d="M228 114 L242 46 L180 86" />
    <path d="M54 144 C54 86 98 58 150 58 C202 58 246 86 246 144 C246 216 198 256 150 256 C102 256 54 216 54 144 Z" />
    <path d="M112 148 C120 140 132 140 140 148" />
    <path d="M160 148 C168 140 180 140 188 148" />
    <path d="M150 166 L138 184 L162 184 Z" />
    <path d="M150 184 C136 202 116 208 96 204" />
    <path d="M150 184 C164 202 184 208 204 204" />
  </g>
</svg>
