<svg viewBox="0 0 300 300" xmlns="http://www.w3.org/2000/svg">
  <g fill="none" stroke="#111" stroke-width="10" stroke-linecap="round" stroke-linejoin="round">
    <circle cx="150" cy="104" r="26" />
    <path d="M150 76 C132 36 158 12 184 36 C204 56 184 76 150 76 Z" />
    <path d="M176 104 C216 86 240 112 216 138 C196 158 176 138 176 104 Z" />
    <path d="M150 130 C168 170 142 194 116 170 C96 150 116 130 150 130 Z" />
    <path d="M124 104 C84 122 60 96 84 70 C104 50 124 70 124 104 Z" />
    <path d="M150 130 V272" />
    <path d="M150 210 C110 184 72 198 56 234 C102 250 136 242 150 210 Z" />
    <path d="M150 240 C188 206 228 214 248 246 C202 270 168 262 150 240 Z" />
  </g>
</svg>
